<svg xmlns="http://www.w3.org/2000/svg" width="160" height="160" viewBox="0 0 160 160">
  <defs>
    <linearGradient id="bg" x1="28" y1="18" x2="132" y2="142" gradientUnits="userSpaceOnUse">
      <stop offset="0" stop-color="#0B6FFB"/>
      <stop offset=".48" stop-color="#0F9FBC"/>
      <stop offset="1" stop-color="#083B91"/>
    </linearGradient>
    <linearGradient id="glass" x1="56" y1="46" x2="106" y2="126" gradientUnits="userSpaceOnUse">
      <stop offset="0" stop-color="#FFE993"/>
      <stop offset=".5" stop-color="#F4B63D"/>
      <stop offset="1" stop-color="#D88912"/>
    </linearGradient>
    <filter id="soft" x="-20%" y="-20%" width="140%" height="140%">
      <feDropShadow dx="0" dy="10" stdDeviation="10" flood-color="#022A68" flood-opacity=".28"/>
    </filter>
  </defs>
  <rect width="160" height="160" rx="80" fill="#EAF4FF"/>
  <circle cx="80" cy="80" r="72" fill="url(#bg)"/>
  <path d="M37 55c22-29 62-33 89-6 11 11 17 25 17 40 0 13-4 25-12 35 5-13 2-26-9-37-18-18-48-18-66 0-11 11-15 24-10 37-12-15-16-34-9-69z" fill="#fff" opacity=".12"/>
  <g filter="url(#soft)">
    <path d="M58 66h45v43c0 12-10 22-22.5 22S58 121 58 109V66z" fill="url(#glass)"/>
    <path d="M103 78h8c9 0 16 7 16 16s-7 16-16 16h-8v-11h8c3 0 6-2 6-5s-3-5-6-5h-8V78z" fill="#F7C65A"/>
    <path d="M54 62c0-11 10-20 22-20 6 0 11 2 15 5 4-5 10-8 18-8 12 0 22 9 22 20 0 8-5 15-12 18H60c-4-3-6-8-6-15z" fill="#fff"/>
    <path d="M64 79h29v9H64zM64 94h29v9H64z" fill="#fff" opacity=".38"/>
  </g>
  <g>
    <circle cx="47" cy="43" r="4" fill="#7DE7D9"/>
    <circle cx="122" cy="42" r="3" fill="#A6D3FF"/>
    <circle cx="130" cy="119" r="4" fill="#7DE7D9"/>
    <path d="M38 111l6 2 2 6 2-6 6-2-6-2-2-6-2 6-6 2z" fill="#fff" opacity=".86"/>
  </g>
  <text x="80" y="147" text-anchor="middle" font-family="Arial, sans-serif" font-size="18" font-weight="700" fill="#fff">青啤 AI</text>
</svg>
